<svg xmlns="http://www.w3.org/2000/svg" version="1.1" xmlns:xlink="http://www.w3.org/1999/xlink" width="1000" height="1000"><style>
    #light-icon {
      display: inline;
    }
    #dark-icon {
      display: none;
    }

    @media (prefers-color-scheme: dark) {
      #light-icon {
        display: none;
      }
      #dark-icon {
        display: inline;
      }
    }
  </style><g id="light-icon"><svg xmlns="http://www.w3.org/2000/svg" version="1.1" xmlns:xlink="http://www.w3.org/1999/xlink" width="1000" height="1000"><g clip-path="url(#SvgjsClipPath1150)"><rect width="1000" height="1000" fill="#f8f7f5"></rect><g transform="matrix(1.7730496453900708,0,0,1.7730496453900708,140.07092198581563,5.684341886080802e-14)"><svg xmlns="http://www.w3.org/2000/svg" version="1.1" xmlns:xlink="http://www.w3.org/1999/xlink" width="406" height="564"><svg xmlns="http://www.w3.org/2000/svg" width="406" height="564"><path d="M217.05 59.414 219 61v2h2c9.975 12.162 13.04 23.444 12 39-1.781 10.881-8.423 21.74-17.027 28.621-3.942 2.778-7.66 4.7-12.223 6.254-6.915 2.664-8.444 7.207-11.355 13.71a576 576 0 0 0-2.67 6.146A214 214 0 0 1 183.5 170a252 252 0 0 0-7 15c-2.691 6.271-5.653 12.354-8.75 18.438-2.449 4.985-4.62 10.071-6.781 15.187-1.626 3.727-3.446 7.34-5.281 10.969-3.638 7.197-6.937 14.526-10.188 21.906-3.777 8.574-7.69 17.027-11.953 25.367-1.945 3.938-3.6 7.96-5.238 12.031-1.191 2.823-2.494 5.566-3.845 8.315-6.937 14.235-11.052 29.17-13.464 44.787l-.559 3.309c-3.196 26.727 1.857 55.753 17.829 77.828 2.165 2.704 4.4 5.3 6.73 7.863l1.633 1.879c15.176 16.434 38.24 26.263 60.383 27.46 28.72.872 53.883-9.07 74.797-28.651 5.068-5.264 8.635-11.34 12.187-17.688l1.434-2.457c2.807-5.133 4.626-10.464 6.316-16.043l.64-2.085c2.745-9.557 2.75-19.162 2.673-29.04l-.014-3.332q-.018-4.021-.049-8.043c-4.359 1.366-8.412 3.043-12.535 5.004l-3.701 1.744q-2.878 1.364-5.754 2.732-2.801 1.33-5.608 2.649l-3.36 1.596c-2.723 1.141-5.134 1.831-8.042 2.275 1.64-5.95 4.632-11.027 7.625-16.375 3.552-6.426 7.074-12.848 10.313-19.437a1053 1053 0 0 1 24.31-46.345c3.218-5.807 6.2-11.692 9.127-17.652 2.647-5.198 5.617-10.196 8.625-15.191l1.703-2.84L319 249l2 1c.566 2.992 1.001 5.92 1.367 8.938l.363 2.817c.392 3.08.77 6.162 1.145 9.245l.396 3.21a3410 3410 0 0 1 2.363 19.69q.51 4.31 1.034 8.62c2.375 19.764 3.718 39.381 3.832 59.293l.032 2.795c.326 36.557-12.13 68.907-37.782 95.08-23.538 23.275-55.969 37.057-89.167 37.332-5.216-.105-10.395-.492-15.583-1.02l-3.383-.344c-33.218-4.329-62.416-21.542-83.281-47.539-24.282-32.403-32.435-70.55-26.993-110.646C78.733 315 85.92 294.752 95 274l1.512-3.473c4.974-11.4 9.961-22.765 15.652-33.828 2.586-5.114 4.904-10.357 7.273-15.574 3.385-7.448 6.855-14.823 10.574-22.109 2.833-5.596 5.417-11.296 7.989-17.016 2.905-6.458 5.862-12.87 9.063-19.187l.948-1.887c1.4-2.783 2.804-5.565 4.223-8.34a783 783 0 0 0 3.828-7.649l1.233-2.381c2.39-4.884 3.399-8.134 1.705-13.556-1.845-2.558-1.845-2.558-4.25-4.75-8.424-8.852-10.98-18.775-12.062-30.687C143.645 82.646 147.228 71.04 155 63h2v-2c19.042-14.29 40.099-14.622 60.05-1.586M179 87c-2.701 4.052-2.762 7.243-2 12 1.283 3.008 2.315 3.809 5 6 4.284 1.371 7.704 1.535 11.875-.187 3.875-3.222 3.875-3.222 5.445-7.895.201-4.037.032-6.327-2.07-9.856-3.103-2.844-4.94-3.891-9.125-4.437-3.97.476-6.02 1.905-9.125 4.375"></path></svg></svg></g></g><defs><clipPath id="SvgjsClipPath1150"><rect width="1000" height="1000" x="0" y="0" rx="150" ry="150"></rect></clipPath></defs></svg></g><g id="dark-icon"><svg xmlns="http://www.w3.org/2000/svg" version="1.1" xmlns:xlink="http://www.w3.org/1999/xlink" width="1000" height="1000"><g><g transform="matrix(1.7730496453900708,0,0,1.7730496453900708,140.07092198581563,5.684341886080802e-14)" style="filter: invert(100%)"><svg xmlns="http://www.w3.org/2000/svg" version="1.1" xmlns:xlink="http://www.w3.org/1999/xlink" width="406" height="564"><svg xmlns="http://www.w3.org/2000/svg" width="406" height="564"><path d="M217.05 59.414 219 61v2h2c9.975 12.162 13.04 23.444 12 39-1.781 10.881-8.423 21.74-17.027 28.621-3.942 2.778-7.66 4.7-12.223 6.254-6.915 2.664-8.444 7.207-11.355 13.71a576 576 0 0 0-2.67 6.146A214 214 0 0 1 183.5 170a252 252 0 0 0-7 15c-2.691 6.271-5.653 12.354-8.75 18.438-2.449 4.985-4.62 10.071-6.781 15.187-1.626 3.727-3.446 7.34-5.281 10.969-3.638 7.197-6.937 14.526-10.188 21.906-3.777 8.574-7.69 17.027-11.953 25.367-1.945 3.938-3.6 7.96-5.238 12.031-1.191 2.823-2.494 5.566-3.845 8.315-6.937 14.235-11.052 29.17-13.464 44.787l-.559 3.309c-3.196 26.727 1.857 55.753 17.829 77.828 2.165 2.704 4.4 5.3 6.73 7.863l1.633 1.879c15.176 16.434 38.24 26.263 60.383 27.46 28.72.872 53.883-9.07 74.797-28.651 5.068-5.264 8.635-11.34 12.187-17.688l1.434-2.457c2.807-5.133 4.626-10.464 6.316-16.043l.64-2.085c2.745-9.557 2.75-19.162 2.673-29.04l-.014-3.332q-.018-4.021-.049-8.043c-4.359 1.366-8.412 3.043-12.535 5.004l-3.701 1.744q-2.878 1.364-5.754 2.732-2.801 1.33-5.608 2.649l-3.36 1.596c-2.723 1.141-5.134 1.831-8.042 2.275 1.64-5.95 4.632-11.027 7.625-16.375 3.552-6.426 7.074-12.848 10.313-19.437a1053 1053 0 0 1 24.31-46.345c3.218-5.807 6.2-11.692 9.127-17.652 2.647-5.198 5.617-10.196 8.625-15.191l1.703-2.84L319 249l2 1c.566 2.992 1.001 5.92 1.367 8.938l.363 2.817c.392 3.08.77 6.162 1.145 9.245l.396 3.21a3410 3410 0 0 1 2.363 19.69q.51 4.31 1.034 8.62c2.375 19.764 3.718 39.381 3.832 59.293l.032 2.795c.326 36.557-12.13 68.907-37.782 95.08-23.538 23.275-55.969 37.057-89.167 37.332-5.216-.105-10.395-.492-15.583-1.02l-3.383-.344c-33.218-4.329-62.416-21.542-83.281-47.539-24.282-32.403-32.435-70.55-26.993-110.646C78.733 315 85.92 294.752 95 274l1.512-3.473c4.974-11.4 9.961-22.765 15.652-33.828 2.586-5.114 4.904-10.357 7.273-15.574 3.385-7.448 6.855-14.823 10.574-22.109 2.833-5.596 5.417-11.296 7.989-17.016 2.905-6.458 5.862-12.87 9.063-19.187l.948-1.887c1.4-2.783 2.804-5.565 4.223-8.34a783 783 0 0 0 3.828-7.649l1.233-2.381c2.39-4.884 3.399-8.134 1.705-13.556-1.845-2.558-1.845-2.558-4.25-4.75-8.424-8.852-10.98-18.775-12.062-30.687C143.645 82.646 147.228 71.04 155 63h2v-2c19.042-14.29 40.099-14.622 60.05-1.586M179 87c-2.701 4.052-2.762 7.243-2 12 1.283 3.008 2.315 3.809 5 6 4.284 1.371 7.704 1.535 11.875-.187 3.875-3.222 3.875-3.222 5.445-7.895.201-4.037.032-6.327-2.07-9.856-3.103-2.844-4.94-3.891-9.125-4.437-3.97.476-6.02 1.905-9.125 4.375"></path></svg></svg></g></g></svg></g></svg>